<?xml version="1.0" standalone="no"?><svg xmlns:xlink="http://www.w3.org/1999/xlink" xmlns="http://www.w3.org/2000/svg" viewBox="0 0 800 622.2256715330068" preserveAspectRatio="xMaxYMax slice"><g transform="scale(1.34973030701303)"><rect x="0" y="0" width="592.7142857142858" height="461" fill="#ffffff"/><rect x="0" y="0" width="65.86" height="65.86" fill="#faf8f7"/><path d="M 0 65.86 A 65.86 65.86 0 0 1  65.86 0 L 0 65.86 A 65.86 65.86 0 0 0 65.86 0" fill="#dfd3cc"/><rect x="65.86" y="0" width="65.86" height="65.86" fill="#959595"/><path d="M 65.86 65.86 A 65.86 65.86 0 0 1  131.72 0 L 65.86 65.86 A 65.86 65.86 0 0 0 131.72 0" fill="#ffffff"/><rect x="131.71428571428572" y="0" width="65.85714285714286" height="65.85714285714286" fill="#ffffff"/><rect x="131.71" y="0" width="32.93" height="32.93" fill="#afafaf"/><path d="M 131.71 32.93 A 32.93 32.93 0 0 0 164.64000000000001 0 L 131.71 0" fill="#ded2ca"/><rect x="164.64" y="0" width="32.93" height="32.93" fill="#f7f4f2"/><path d="M 164.64 0 A 32.93 32.93 0 0 1  197.57 32.93 L 164.64 0 A 32.93 32.93 0 0 0 197.57 32.93" fill="#cbcbcb"/><rect x="131.71" y="32.93" width="32.93" height="32.93" fill="#5b5b5b"/><path d="M 131.71 32.93 A 32.93 32.93 0 0 1  164.64000000000001 65.86 L 131.71 32.93 A 32.93 32.93 0 0 0 164.64000000000001 65.86" fill="#e0e0e0"/><rect x="164.64" y="32.93" width="32.93" height="32.93" fill="#f0eae7"/><path d="M 164.64 65.86 A 32.93 32.93 0 0 0 197.57 32.93 L 164.64 32.93" fill="#fefefe"/><rect x="197.57" y="0" width="65.86" height="65.86" fill="#858585"/><path d="M 197.57 65.86 A 65.86 65.86 0 0 1  263.43 0 L 197.57 65.86 A 65.86 65.86 0 0 0 263.43 0" fill="#595959"/><rect x="263.42857142857144" y="0" width="65.85714285714286" height="65.85714285714286" fill="#ffffff"/><rect x="263.43" y="0" width="32.93" height="32.93" fill="#343434"/><path d="M 263.43 32.93 A 32.93 32.93 0 0 1  296.36 0 L 296.36 32.93" fill="#f6f3f0"/><rect x="296.36" y="0" width="32.93" height="32.93" fill="#555555"/><path d="M 296.36 32.93 A 32.93 32.93 0 0 0 329.29 0 L 296.36 0" fill="#353535"/><rect x="263.43" y="32.93" width="32.93" height="32.93" fill="#7f7f7f"/><path d="M 263.43 32.93 A 32.93 32.93 0 0 0 296.36 65.86 L 296.36 32.93" fill="#e9e0db"/><rect x="296.36" y="32.93" width="32.93" height="32.93" fill="#dddddd"/><path d="M 296.36 65.86 A 32.93 32.93 0 0 0 329.29 32.93 L 296.36 32.93" fill="#efe9e6"/><rect x="329.28571428571433" y="0" width="65.85714285714286" height="65.85714285714286" fill="#ffffff"/><rect x="329.29" y="0" width="32.93" height="32.93" fill="#e6dcd7"/><path d="M 329.29 32.93 A 32.93 32.93 0 0 0 362.22 0 L 329.29 0" fill="#888888"/><rect x="362.21" y="0" width="32.93" height="32.93" fill="#e9e1dc"/><path d="M 362.21 32.93 A 32.93 32.93 0 0 1  395.14 0 L 395.14 32.93" fill="#fcfbfa"/><rect x="329.29" y="32.93" width="32.93" height="32.93" fill="#f8f5f3"/><path d="M 329.29 32.93 A 32.93 32.93 0 0 1 362.22 65.86 L 329.29 65.86" fill="#979797"/><rect x="362.21" y="32.93" width="32.93" height="32.93" fill="#757575"/><path d="M 362.21 32.93 A 32.93 32.93 0 0 1  395.14 65.86 L 362.21 32.93 A 32.93 32.93 0 0 0 395.14 65.86" fill="#515151"/><rect x="395.14" y="0" width="65.86" height="65.86" fill="#ded2ca"/><path d="M 395.14 65.86 A 65.86 65.86 0 0 1  461 0 L 461 65.86" fill="#cccccc"/><rect x="461" y="0" width="65.85714285714286" height="65.85714285714286" fill="#ffffff"/><rect x="461" y="0" width="32.93" height="32.93" fill="#f6f3f1"/><path d="M 461 32.93 A 32.93 32.93 0 0 1  493.93 0 L 461 32.93 A 32.93 32.93 0 0 0 493.93 0" fill="#e6ddd7"/><rect x="493.93" y="0" width="32.93" height="32.93" fill="#e5dbd4"/><path d="M 493.93 0 A 32.93 32.93 0 0 1  526.86 32.93 L 493.93 0 A 32.93 32.93 0 0 0 526.86 32.93" fill="#f0eae7"/><rect x="461" y="32.93" width="32.93" height="32.93" fill="#f3eeeb"/><path d="M 461 32.93 A 32.93 32.93 0 0 1  493.93 65.86 L 461 32.93 A 32.93 32.93 0 0 0 493.93 65.86" fill="#e8e0db"/><rect x="493.93" y="32.93" width="32.93" height="32.93" fill="#f9f7f6"/><path d="M 493.93 32.93 A 32.93 32.93 0 0 0 526.86 65.86 L 526.86 32.93" fill="#ece4e0"/><rect x="526.8571428571429" y="0" width="65.85714285714286" height="65.85714285714286" fill="#ffffff"/><rect x="526.86" y="0" width="32.93" height="32.93" fill="#474747"/><path d="M 526.86 32.93 A 32.93 32.93 0 0 1  559.79 0 L 559.79 32.93" fill="#f3eeeb"/><rect x="559.79" y="0" width="32.93" height="32.93" fill="#dfd2cb"/><path d="M 559.79 32.93 A 32.93 32.93 0 0 1  592.7199999999999 0 L 592.7199999999999 32.93" fill="#494949"/><rect x="526.86" y="32.93" width="32.93" height="32.93" fill="#6c6c6c"/><path d="M 526.86 32.93 A 32.93 32.93 0 0 1  559.79 65.86 L 526.86 32.93 A 32.93 32.93 0 0 0 559.79 65.86" fill="#e6ddd7"/><rect x="559.79" y="32.93" width="32.93" height="32.93" fill="#ded1c9"/><path d="M 559.79 65.86 A 32.93 32.93 0 0 0 592.7199999999999 32.93 L 559.79 32.93" fill="#dfdfdf"/><rect x="0" y="65.85714285714286" width="65.85714285714286" height="65.85714285714286" fill="#ffffff"/><rect x="0" y="65.86" width="32.93" height="32.93" fill="#dfd2cb"/><path d="M 0 65.86 A 32.93 32.93 0 0 0 32.93 98.78999999999999 L 32.93 65.86" fill="#fdfdfd"/><rect x="32.93" y="65.86" width="32.93" height="32.93" fill="#ece5e0"/><path d="M 32.93 98.78999999999999 A 32.93 32.93 0 0 1  65.86 65.86 L 32.93 98.78999999999999 A 32.93 32.93 0 0 0 65.86 65.86" fill="#fefdfd"/><rect x="0" y="98.79" width="32.93" height="32.93" fill="#cecece"/><path d="M 0 98.79 A 32.93 32.93 0 0 1 32.93 131.72 L 0 131.72" fill="#585858"/><rect x="32.93" y="98.79" width="32.93" height="32.93" fill="#f6f2f0"/><path d="M 32.93 98.79 A 32.93 32.93 0 0 1 65.86 131.72 L 32.93 131.72" fill="#f6f6f6"/><rect x="65.85714285714286" y="65.85714285714286" width="65.85714285714286" height="65.85714285714286" fill="#ffffff"/><rect x="65.86" y="65.86" width="32.93" height="32.93" fill="#939393"/><path d="M 65.86 98.78999999999999 A 32.93 32.93 0 0 0 98.78999999999999 65.86 L 65.86 65.86" fill="#efeae6"/><rect x="98.79" y="65.86" width="32.93" height="32.93" fill="#e2d6cf"/><path d="M 98.79 98.78999999999999 A 32.93 32.93 0 0 1  131.72 65.86 L 131.72 98.78999999999999" fill="#858585"/><rect x="65.86" y="98.79" width="32.93" height="32.93" fill="#ded1c9"/><path d="M 65.86 98.79 A 32.93 32.93 0 0 0 98.78999999999999 131.72 L 98.78999999999999 98.79" fill="#f0eae7"/><rect x="98.79" y="98.79" width="32.93" height="32.93" fill="#fffefe"/><path d="M 98.79 98.79 A 32.93 32.93 0 0 1  131.72 131.72 L 98.79 98.79 A 32.93 32.93 0 0 0 131.72 131.72" fill="#454545"/><rect x="131.71" y="65.86" width="65.86" height="65.86" fill="#faf9f8"/><path d="M 131.71 131.72 A 65.86 65.86 0 0 0 197.57 65.86 L 131.71 65.86" fill="#f6f3f1"/><rect x="197.57142857142858" y="65.85714285714286" width="65.85714285714286" height="65.85714285714286" fill="#ffffff"/><rect x="197.57" y="65.86" width="32.93" height="32.93" fill="#fcfbfb"/><path d="M 197.57 98.78999999999999 A 32.93 32.93 0 0 0 230.5 65.86 L 197.57 65.86" fill="#f3eeeb"/><rect x="230.5" y="65.86" width="32.93" height="32.93" fill="#d4d4d4"/><path d="M 230.5 65.86 A 32.93 32.93 0 0 1  263.43 98.78999999999999 L 230.5 65.86 A 32.93 32.93 0 0 0 263.43 98.78999999999999" fill="#bdbdbd"/><rect x="197.57" y="98.79" width="32.93" height="32.93" fill="#fdfdfd"/><path d="M 197.57 98.79 A 32.93 32.93 0 0 0 230.5 131.72 L 230.5 98.79" fill="#424242"/><rect x="230.5" y="98.79" width="32.93" height="32.93" fill="#e7e7e7"/><path d="M 230.5 98.79 A 32.93 32.93 0 0 1 263.43 131.72 L 230.5 131.72" fill="#929292"/><rect x="263.42857142857144" y="65.85714285714286" width="65.85714285714286" height="65.85714285714286" fill="#ffffff"/><rect x="263.43" y="65.86" width="32.93" height="32.93" fill="#e4dad3"/><path d="M 263.43 65.86 A 32.93 32.93 0 0 1 296.36 98.78999999999999 L 263.43 98.78999999999999" fill="#e6dcd6"/><rect x="296.36" y="65.86" width="32.93" height="32.93" fill="#f8f5f3"/><path d="M 296.36 98.78999999999999 A 32.93 32.93 0 0 1  329.29 65.86 L 329.29 98.78999999999999" fill="#5e5e5e"/><rect x="263.43" y="98.79" width="32.93" height="32.93" fill="#363636"/><path d="M 263.43 98.79 A 32.93 32.93 0 0 1  296.36 131.72 L 263.43 98.79 A 32.93 32.93 0 0 0 296.36 131.72" fill="#f9f6f5"/><rect x="296.36" y="98.79" width="32.93" height="32.93" fill="#f2ede9"/><path d="M 296.36 131.72 A 32.93 32.93 0 0 1  329.29 98.79 L 296.36 131.72 A 32.93 32.93 0 0 0 329.29 98.79" fill="#d8d8d8"/><rect x="329.28571428571433" y="65.85714285714286" width="65.85714285714286" height="65.85714285714286" fill="#ffffff"/><rect x="329.29" y="65.86" width="32.93" height="32.93" fill="#676767"/><path d="M 329.29 98.78999999999999 A 32.93 32.93 0 0 0 362.22 65.86 L 329.29 65.86" fill="#c9c9c9"/><rect x="362.21" y="65.86" width="32.93" height="32.93" fill="#ded2ca"/><path d="M 362.21 65.86 A 32.93 32.93 0 0 1 395.14 98.78999999999999 L 362.21 98.78999999999999" fill="#ded1ca"/><rect x="329.29" y="98.79" width="32.93" height="32.93" fill="#acacac"/><path d="M 329.29 98.79 A 32.93 32.93 0 0 1 362.22 131.72 L 329.29 131.72" fill="#646464"/><rect x="362.21" y="98.79" width="32.93" height="32.93" fill="#f1ebe8"/><path d="M 362.21 98.79 A 32.93 32.93 0 0 1 395.14 131.72 L 362.21 131.72" fill="#f1ebe8"/><rect x="395.14285714285717" y="65.85714285714286" width="65.85714285714286" height="65.85714285714286" fill="#ffffff"/><rect x="395.14" y="65.86" width="32.93" height="32.93" fill="#696969"/><path d="M 395.14 65.86 A 32.93 32.93 0 0 1 428.07 98.78999999999999 L 395.14 98.78999999999999" fill="#ebe3de"/><rect x="428.07" y="65.86" width="32.93" height="32.93" fill="#d3d3d3"/><path d="M 428.07 65.86 A 32.93 32.93 0 0 1 461 98.78999999999999 L 428.07 98.78999999999999" fill="#f5f5f5"/><rect x="395.14" y="98.79" width="32.93" height="32.93" fill="#efe9e5"/><path d="M 395.14 131.72 A 32.93 32.93 0 0 0 428.07 98.79 L 395.14 98.79" fill="#ede6e2"/><rect x="428.07" y="98.79" width="32.93" height="32.93" fill="#9e9e9e"/><path d="M 428.07 98.79 A 32.93 32.93 0 0 1 461 131.72 L 428.07 131.72" fill="#505050"/><rect x="461" y="65.86" width="65.86" height="65.86" fill="#f4f0ed"/><path d="M 461 65.86 A 65.86 65.86 0 0 0 526.86 131.72 L 526.86 65.86" fill="#7d7d7d"/><rect x="526.86" y="65.86" width="65.86" height="65.86" fill="#fefefe"/><path d="M 526.86 65.86 A 65.86 65.86 0 0 0 592.72 131.72 L 592.72 65.86" fill="#f4f0ed"/><rect x="0" y="131.71" width="65.86" height="65.86" fill="#fdfcfc"/><path d="M 0 131.71 A 65.86 65.86 0 0 1  65.86 197.57 L 0 131.71 A 65.86 65.86 0 0 0 65.86 197.57" fill="#f0eae7"/><rect x="65.85714285714286" y="131.71428571428572" width="65.85714285714286" height="65.85714285714286" fill="#ffffff"/><rect x="65.86" y="131.71" width="32.93" height="32.93" fill="#cccccc"/><path d="M 65.86 164.64000000000001 A 32.93 32.93 0 0 0 98.78999999999999 131.71 L 65.86 131.71" fill="#8f8f8f"/><rect x="98.79" y="131.71" width="32.93" height="32.93" fill="#9b9b9b"/><path d="M 98.79 164.64000000000001 A 32.93 32.93 0 0 1  131.72 131.71 L 98.79 164.64000000000001 A 32.93 32.93 0 0 0 131.72 131.71" fill="#f5f2f0"/><rect x="65.86" y="164.64" width="32.93" height="32.93" fill="#faf9f8"/><path d="M 65.86 164.64 A 32.93 32.93 0 0 1  98.78999999999999 197.57 L 65.86 164.64 A 32.93 32.93 0 0 0 98.78999999999999 197.57" fill="#e5dcd6"/><rect x="98.79" y="164.64" width="32.93" height="32.93" fill="#747474"/><path d="M 98.79 197.57 A 32.93 32.93 0 0 1  131.72 164.64 L 131.72 197.57" fill="#e1d5ce"/><rect x="131.71428571428572" y="131.71428571428572" width="65.85714285714286" height="65.85714285714286" fill="#ffffff"/><rect x="131.71" y="131.71" width="32.93" height="32.93" fill="#f6f3f1"/><path d="M 131.71 164.64000000000001 A 32.93 32.93 0 0 1  164.64000000000001 131.71 L 131.71 164.64000000000001 A 32.93 32.93 0 0 0 164.64000000000001 131.71" fill="#adadad"/><rect x="164.64" y="131.71" width="32.93" height="32.93" fill="#f6f3f0"/><path d="M 164.64 164.64000000000001 A 32.93 32.93 0 0 1  197.57 131.71 L 164.64 164.64000000000001 A 32.93 32.93 0 0 0 197.57 131.71" fill="#9d9d9d"/><rect x="131.71" y="164.64" width="32.93" height="32.93" fill="#4b4b4b"/><path d="M 131.71 164.64 A 32.93 32.93 0 0 1 164.64000000000001 197.57 L 131.71 197.57" fill="#575757"/><rect x="164.64" y="164.64" width="32.93" height="32.93" fill="#dfd2ca"/><path d="M 164.64 164.64 A 32.93 32.93 0 0 0 197.57 197.57 L 197.57 164.64" fill="#e9e1db"/><rect x="197.57" y="131.71" width="65.86" height="65.86" fill="#b5b5b5"/><path d="M 197.57 197.57 A 65.86 65.86 0 0 1  263.43 131.71 L 197.57 197.57 A 65.86 65.86 0 0 0 263.43 131.71" fill="#f7f3f1"/><rect x="263.42857142857144" y="131.71428571428572" width="65.85714285714286" height="65.85714285714286" fill="#ffffff"/><rect x="263.43" y="131.71" width="32.93" height="32.93" fill="#fcfbfa"/><path d="M 263.43 131.71 A 32.93 32.93 0 0 1 296.36 164.64000000000001 L 263.43 164.64000000000001" fill="#f3eeeb"/><rect x="296.36" y="131.71" width="32.93" height="32.93" fill="#aeaeae"/><path d="M 296.36 164.64000000000001 A 32.93 32.93 0 0 1  329.29 131.71 L 296.36 164.64000000000001 A 32.93 32.93 0 0 0 329.29 131.71" fill="#faf8f7"/><rect x="263.43" y="164.64" width="32.93" height="32.93" fill="#f6f3f1"/><path d="M 263.43 164.64 A 32.93 32.93 0 0 1  296.36 197.57 L 263.43 164.64 A 32.93 32.93 0 0 0 296.36 197.57" fill="#ece5e1"/><rect x="296.36" y="164.64" width="32.93" height="32.93" fill="#f4f0ee"/><path d="M 296.36 197.57 A 32.93 32.93 0 0 1  329.29 164.64 L 296.36 197.57 A 32.93 32.93 0 0 0 329.29 164.64" fill="#faf8f7"/><rect x="329.28571428571433" y="131.71428571428572" width="65.85714285714286" height="65.85714285714286" fill="#ffffff"/><rect x="329.29" y="131.71" width="32.93" height="32.93" fill="#a1a1a1"/><path d="M 329.29 164.64000000000001 A 32.93 32.93 0 0 1  362.22 131.71 L 329.29 164.64000000000001 A 32.93 32.93 0 0 0 362.22 131.71" fill="#f7f4f3"/><rect x="362.21" y="131.71" width="32.93" height="32.93" fill="#929292"/><path d="M 362.21 131.71 A 32.93 32.93 0 0 1 395.14 164.64000000000001 L 362.21 164.64000000000001" fill="#fbfaf9"/><rect x="329.29" y="164.64" width="32.93" height="32.93" fill="#7c7c7c"/><path d="M 329.29 164.64 A 32.93 32.93 0 0 1 362.22 197.57 L 329.29 197.57" fill="#fdfdfd"/><rect x="362.21" y="164.64" width="32.93" height="32.93" fill="#979797"/><path d="M 362.21 164.64 A 32.93 32.93 0 0 1 395.14 197.57 L 362.21 197.57" fill="#faf8f7"/><rect x="395.14" y="131.71" width="65.86" height="65.86" fill="#f3eeec"/><path d="M 395.14 197.57 A 65.86 65.86 0 0 1  461 131.71 L 461 197.57" fill="#fcfcfc"/><rect x="461" y="131.71" width="65.86" height="65.86" fill="#797979"/><path d="M 461 197.57 A 65.86 65.86 0 0 1  526.86 131.71 L 526.86 197.57" fill="#bcbcbc"/><rect x="526.86" y="131.71" width="65.86" height="65.86" fill="#6a6a6a"/><path d="M 526.86 197.57 A 65.86 65.86 0 0 0 592.72 131.71 L 526.86 131.71" fill="#e6dcd6"/><rect x="0" y="197.57142857142858" width="65.85714285714286" height="65.85714285714286" fill="#ffffff"/><rect x="0" y="197.57" width="32.93" height="32.93" fill="#cfcfcf"/><path d="M 0 230.5 A 32.93 32.93 0 0 1  32.93 197.57 L 0 230.5 A 32.93 32.93 0 0 0 32.93 197.57" fill="#f6f6f6"/><rect x="32.93" y="197.57" width="32.93" height="32.93" fill="#f3eeeb"/><path d="M 32.93 230.5 A 32.93 32.93 0 0 0 65.86 197.57 L 32.93 197.57" fill="#e9e1dc"/><rect x="0" y="230.5" width="32.93" height="32.93" fill="#fdfcfb"/><path d="M 0 230.5 A 32.93 32.93 0 0 1 32.93 263.43 L 0 263.43" fill="#e7ded8"/><rect x="32.93" y="230.5" width="32.93" height="32.93" fill="#e0d4cd"/><path d="M 32.93 230.5 A 32.93 32.93 0 0 1  65.86 263.43 L 32.93 230.5 A 32.93 32.93 0 0 0 65.86 263.43" fill="#4c4c4c"/><rect x="65.85714285714286" y="197.57142857142858" width="65.85714285714286" height="65.85714285714286" fill="#ffffff"/><rect x="65.86" y="197.57" width="32.93" height="32.93" fill="#ebe4df"/><path d="M 65.86 197.57 A 32.93 32.93 0 0 0 98.78999999999999 230.5 L 98.78999999999999 197.57" fill="#f2edea"/><rect x="98.79" y="197.57" width="32.93" height="32.93" fill="#e0d4cd"/><path d="M 98.79 197.57 A 32.93 32.93 0 0 0 131.72 230.5 L 131.72 197.57" fill="#959595"/><rect x="65.86" y="230.5" width="32.93" height="32.93" fill="#e2e2e2"/><path d="M 65.86 230.5 A 32.93 32.93 0 0 1  98.78999999999999 263.43 L 65.86 230.5 A 32.93 32.93 0 0 0 98.78999999999999 263.43" fill="#ebe4df"/><rect x="98.79" y="230.5" width="32.93" height="32.93" fill="#e1d5ce"/><path d="M 98.79 263.43 A 32.93 32.93 0 0 1  131.72 230.5 L 98.79 263.43 A 32.93 32.93 0 0 0 131.72 230.5" fill="#5b5b5b"/><rect x="131.71428571428572" y="197.57142857142858" width="65.85714285714286" height="65.85714285714286" fill="#ffffff"/><rect x="131.71" y="197.57" width="32.93" height="32.93" fill="#878787"/><path d="M 131.71 197.57 A 32.93 32.93 0 0 0 164.64000000000001 230.5 L 164.64000000000001 197.57" fill="#e9e1dc"/><rect x="164.64" y="197.57" width="32.93" height="32.93" fill="#e4d9d3"/><path d="M 164.64 197.57 A 32.93 32.93 0 0 0 197.57 230.5 L 197.57 197.57" fill="#efe8e5"/><rect x="131.71" y="230.5" width="32.93" height="32.93" fill="#e6ddd7"/><path d="M 131.71 230.5 A 32.93 32.93 0 0 1 164.64000000000001 263.43 L 131.71 263.43" fill="#ede6e2"/><rect x="164.64" y="230.5" width="32.93" height="32.93" fill="#d6d6d6"/><path d="M 164.64 263.43 A 32.93 32.93 0 0 1  197.57 230.5 L 197.57 263.43" fill="#ece4e0"/><rect x="197.57" y="197.57" width="65.86" height="65.86" fill="#e3d8d2"/><path d="M 197.57 197.57 A 65.86 65.86 0 0 1 263.43 263.43 L 197.57 263.43" fill="#757575"/><rect x="263.42857142857144" y="197.57142857142858" width="65.85714285714286" height="65.85714285714286" fill="#ffffff"/><rect x="263.43" y="197.57" width="32.93" height="32.93" fill="#d6d6d6"/><path d="M 263.43 197.57 A 32.93 32.93 0 0 0 296.36 230.5 L 296.36 197.57" fill="#e6dcd7"/><rect x="296.36" y="197.57" width="32.93" height="32.93" fill="#b8b8b8"/><path d="M 296.36 230.5 A 32.93 32.93 0 0 0 329.29 197.57 L 296.36 197.57" fill="#e1d6cf"/><rect x="263.43" y="230.5" width="32.93" height="32.93" fill="#666666"/><path d="M 263.43 230.5 A 32.93 32.93 0 0 1 296.36 263.43 L 263.43 263.43" fill="#f7f3f2"/><rect x="296.36" y="230.5" width="32.93" height="32.93" fill="#999999"/><path d="M 296.36 263.43 A 32.93 32.93 0 0 1  329.29 230.5 L 329.29 263.43" fill="#f4f0ed"/><rect x="329.29" y="197.57" width="65.86" height="65.86" fill="#d3d3d3"/><path d="M 329.29 197.57 A 65.86 65.86 0 0 0 395.15000000000003 263.43 L 395.15000000000003 197.57" fill="#e3d8d1"/><rect x="395.14" y="197.57" width="65.86" height="65.86" fill="#faf8f7"/><path d="M 395.14 197.57 A 65.86 65.86 0 0 1  461 263.43 L 395.14 197.57 A 65.86 65.86 0 0 0 461 263.43" fill="#d3d3d3"/><rect x="461" y="197.57142857142858" width="65.85714285714286" height="65.85714285714286" fill="#ffffff"/><rect x="461" y="197.57" width="32.93" height="32.93" fill="#545454"/><path d="M 461 230.5 A 32.93 32.93 0 0 0 493.93 197.57 L 461 197.57" fill="#717171"/><rect x="493.93" y="197.57" width="32.93" height="32.93" fill="#636363"/><path d="M 493.93 197.57 A 32.93 32.93 0 0 0 526.86 230.5 L 526.86 197.57" fill="#d5d5d5"/><rect x="461" y="230.5" width="32.93" height="32.93" fill="#6d6d6d"/><path d="M 461 230.5 A 32.93 32.93 0 0 1  493.93 263.43 L 461 230.5 A 32.93 32.93 0 0 0 493.93 263.43" fill="#a0a0a0"/><rect x="493.93" y="230.5" width="32.93" height="32.93" fill="#5f5f5f"/><path d="M 493.93 263.43 A 32.93 32.93 0 0 1  526.86 230.5 L 526.86 263.43" fill="#f0eae6"/><rect x="526.8571428571429" y="197.57142857142858" width="65.85714285714286" height="65.85714285714286" fill="#ffffff"/><rect x="526.86" y="197.57" width="32.93" height="32.93" fill="#616161"/><path d="M 526.86 197.57 A 32.93 32.93 0 0 1 559.79 230.5 L 526.86 230.5" fill="#ece4e0"/><rect x="559.79" y="197.57" width="32.93" height="32.93" fill="#f5f1ef"/><path d="M 559.79 230.5 A 32.93 32.93 0 0 1  592.7199999999999 197.57 L 592.7199999999999 230.5" fill="#474747"/><rect x="526.86" y="230.5" width="32.93" height="32.93" fill="#b8b8b8"/><path d="M 526.86 230.5 A 32.93 32.93 0 0 0 559.79 263.43 L 559.79 230.5" fill="#979797"/><rect x="559.79" y="230.5" width="32.93" height="32.93" fill="#606060"/><path d="M 559.79 230.5 A 32.93 32.93 0 0 1 592.7199999999999 263.43 L 559.79 263.43" fill="#e9e1dc"/><rect x="0" y="263.43" width="65.86" height="65.86" fill="#e3e3e3"/><path d="M 0 263.43 A 65.86 65.86 0 0 1  65.86 329.29 L 0 263.43 A 65.86 65.86 0 0 0 65.86 329.29" fill="#e5dcd6"/><rect x="65.86" y="263.43" width="65.86" height="65.86" fill="#b1b1b1"/><path d="M 65.86 329.29 A 65.86 65.86 0 0 1  131.72 263.43 L 65.86 329.29 A 65.86 65.86 0 0 0 131.72 263.43" fill="#5a5a5a"/><rect x="131.71" y="263.43" width="65.86" height="65.86" fill="#8c8c8c"/><path d="M 131.71 329.29 A 65.86 65.86 0 0 1  197.57 263.43 L 197.57 329.29" fill="#373737"/><rect x="197.57" y="263.43" width="65.86" height="65.86" fill="#e8dfda"/><path d="M 197.57 263.43 A 65.86 65.86 0 0 1  263.43 329.29 L 197.57 263.43 A 65.86 65.86 0 0 0 263.43 329.29" fill="#636363"/><rect x="263.43" y="263.43" width="65.86" height="65.86" fill="#8f8f8f"/><path d="M 263.43 329.29 A 65.86 65.86 0 0 1  329.29 263.43 L 329.29 329.29" fill="#eee7e3"/><rect x="329.28571428571433" y="263.42857142857144" width="65.85714285714286" height="65.85714285714286" fill="#ffffff"/><rect x="329.29" y="263.43" width="32.93" height="32.93" fill="#b7b7b7"/><path d="M 329.29 263.43 A 32.93 32.93 0 0 0 362.22 296.36 L 362.22 263.43" fill="#f9f6f5"/><rect x="362.21" y="263.43" width="32.93" height="32.93" fill="#ebebeb"/><path d="M 362.21 296.36 A 32.93 32.93 0 0 0 395.14 263.43 L 362.21 263.43" fill="#e6ddd7"/><rect x="329.29" y="296.36" width="32.93" height="32.93" fill="#828282"/><path d="M 329.29 329.29 A 32.93 32.93 0 0 0 362.22 296.36 L 329.29 296.36" fill="#f7f4f3"/><rect x="362.21" y="296.36" width="32.93" height="32.93" fill="#6b6b6b"/><path d="M 362.21 329.29 A 32.93 32.93 0 0 0 395.14 296.36 L 362.21 296.36" fill="#d2d2d2"/><rect x="395.14" y="263.43" width="65.86" height="65.86" fill="#fefdfd"/><path d="M 395.14 329.29 A 65.86 65.86 0 0 0 461 263.43 L 395.14 263.43" fill="#717171"/><rect x="461" y="263.42857142857144" width="65.85714285714286" height="65.85714285714286" fill="#ffffff"/><rect x="461" y="263.43" width="32.93" height="32.93" fill="#969696"/><path d="M 461 263.43 A 32.93 32.93 0 0 1 493.93 296.36 L 461 296.36" fill="#ddd0c9"/><rect x="493.93" y="263.43" width="32.93" height="32.93" fill="#eaeaea"/><path d="M 493.93 296.36 A 32.93 32.93 0 0 1  526.86 263.43 L 526.86 296.36" fill="#bcbcbc"/><rect x="461" y="296.36" width="32.93" height="32.93" fill="#e9e9e9"/><path d="M 461 296.36 A 32.93 32.93 0 0 1  493.93 329.29 L 461 296.36 A 32.93 32.93 0 0 0 493.93 329.29" fill="#e0e0e0"/><rect x="493.93" y="296.36" width="32.93" height="32.93" fill="#f3f3f3"/><path d="M 493.93 329.29 A 32.93 32.93 0 0 1  526.86 296.36 L 493.93 329.29 A 32.93 32.93 0 0 0 526.86 296.36" fill="#f8f6f4"/><rect x="526.8571428571429" y="263.42857142857144" width="65.85714285714286" height="65.85714285714286" fill="#ffffff"/><rect x="526.86" y="263.43" width="32.93" height="32.93" fill="#e1d6cf"/><path d="M 526.86 263.43 A 32.93 32.93 0 0 1  559.79 296.36 L 526.86 263.43 A 32.93 32.93 0 0 0 559.79 296.36" fill="#b0b0b0"/><rect x="559.79" y="263.43" width="32.93" height="32.93" fill="#f3eeeb"/><path d="M 559.79 263.43 A 32.93 32.93 0 0 1  592.7199999999999 296.36 L 559.79 263.43 A 32.93 32.93 0 0 0 592.7199999999999 296.36" fill="#f5f1ef"/><rect x="526.86" y="296.36" width="32.93" height="32.93" fill="#505050"/><path d="M 526.86 329.29 A 32.93 32.93 0 0 0 559.79 296.36 L 526.86 296.36" fill="#fdfcfb"/><rect x="559.79" y="296.36" width="32.93" height="32.93" fill="#cecece"/><path d="M 559.79 296.36 A 32.93 32.93 0 0 0 592.7199999999999 329.29 L 592.7199999999999 296.36" fill="#f4f4f4"/><rect x="0" y="329.29" width="65.86" height="65.86" fill="#eee7e3"/><path d="M 0 329.29 A 65.86 65.86 0 0 0 65.86 395.15000000000003 L 65.86 329.29" fill="#c2c2c2"/><rect x="65.85714285714286" y="329.28571428571433" width="65.85714285714286" height="65.85714285714286" fill="#ffffff"/><rect x="65.86" y="329.29" width="32.93" height="32.93" fill="#656565"/><path d="M 65.86 362.22 A 32.93 32.93 0 0 1  98.78999999999999 329.29 L 65.86 362.22 A 32.93 32.93 0 0 0 98.78999999999999 329.29" fill="#ded2ca"/><rect x="98.79" y="329.29" width="32.93" height="32.93" fill="#ece5e0"/><path d="M 98.79 329.29 A 32.93 32.93 0 0 1  131.72 362.22 L 98.79 329.29 A 32.93 32.93 0 0 0 131.72 362.22" fill="#e5dbd5"/><rect x="65.86" y="362.21" width="32.93" height="32.93" fill="#4e4e4e"/><path d="M 65.86 395.14 A 32.93 32.93 0 0 0 98.78999999999999 362.21 L 65.86 362.21" fill="#b4b4b4"/><rect x="98.79" y="362.21" width="32.93" height="32.93" fill="#575757"/><path d="M 98.79 395.14 A 32.93 32.93 0 0 1  131.72 362.21 L 98.79 395.14 A 32.93 32.93 0 0 0 131.72 362.21" fill="#e1d5ce"/><rect x="131.71428571428572" y="329.28571428571433" width="65.85714285714286" height="65.85714285714286" fill="#ffffff"/><rect x="131.71" y="329.29" width="32.93" height="32.93" fill="#faf9f8"/><path d="M 131.71 362.22 A 32.93 32.93 0 0 1  164.64000000000001 329.29 L 131.71 362.22 A 32.93 32.93 0 0 0 164.64000000000001 329.29" fill="#c5c5c5"/><rect x="164.64" y="329.29" width="32.93" height="32.93" fill="#999999"/><path d="M 164.64 329.29 A 32.93 32.93 0 0 0 197.57 362.22 L 197.57 329.29" fill="#3e3e3e"/><rect x="131.71" y="362.21" width="32.93" height="32.93" fill="#e9e1dc"/><path d="M 131.71 362.21 A 32.93 32.93 0 0 1  164.64000000000001 395.14 L 131.71 362.21 A 32.93 32.93 0 0 0 164.64000000000001 395.14" fill="#5d5d5d"/><rect x="164.64" y="362.21" width="32.93" height="32.93" fill="#fbf9f8"/><path d="M 164.64 362.21 A 32.93 32.93 0 0 1 197.57 395.14 L 164.64 395.14" fill="#faf8f7"/><rect x="197.57142857142858" y="329.28571428571433" width="65.85714285714286" height="65.85714285714286" fill="#ffffff"/><rect x="197.57" y="329.29" width="32.93" height="32.93" fill="#c4c4c4"/><path d="M 197.57 329.29 A 32.93 32.93 0 0 1  230.5 362.22 L 197.57 329.29 A 32.93 32.93 0 0 0 230.5 362.22" fill="#f1f1f1"/><rect x="230.5" y="329.29" width="32.93" height="32.93" fill="#dddddd"/><path d="M 230.5 329.29 A 32.93 32.93 0 0 0 263.43 362.22 L 263.43 329.29" fill="#e0e0e0"/><rect x="197.57" y="362.21" width="32.93" height="32.93" fill="#e8dfda"/><path d="M 197.57 395.14 A 32.93 32.93 0 0 1  230.5 362.21 L 230.5 395.14" fill="#e7ddd8"/><rect x="230.5" y="362.21" width="32.93" height="32.93" fill="#b4b4b4"/><path d="M 230.5 362.21 A 32.93 32.93 0 0 1  263.43 395.14 L 230.5 362.21 A 32.93 32.93 0 0 0 263.43 395.14" fill="#939393"/><rect x="263.43" y="329.29" width="65.86" height="65.86" fill="#faf8f6"/><path d="M 263.43 329.29 A 65.86 65.86 0 0 1  329.29 395.15000000000003 L 263.43 329.29 A 65.86 65.86 0 0 0 329.29 395.15000000000003" fill="#c3c3c3"/><rect x="329.29" y="329.29" width="65.86" height="65.86" fill="#c2c2c2"/><path d="M 329.29 329.29 A 65.86 65.86 0 0 1  395.15000000000003 395.15000000000003 L 329.29 329.29 A 65.86 65.86 0 0 0 395.15000000000003 395.15000000000003" fill="#ece5e1"/><rect x="395.14" y="329.29" width="65.86" height="65.86" fill="#f4f0ed"/><path d="M 395.14 395.15000000000003 A 65.86 65.86 0 0 1  461 329.29 L 461 395.15000000000003" fill="#cdcdcd"/><rect x="461" y="329.28571428571433" width="65.85714285714286" height="65.85714285714286" fill="#ffffff"/><rect x="461" y="329.29" width="32.93" height="32.93" fill="#ede6e2"/><path d="M 461 362.22 A 32.93 32.93 0 0 1  493.93 329.29 L 461 362.22 A 32.93 32.93 0 0 0 493.93 329.29" fill="#3a3a3a"/><rect x="493.93" y="329.29" width="32.93" height="32.93" fill="#949494"/><path d="M 493.93 362.22 A 32.93 32.93 0 0 1  526.86 329.29 L 526.86 362.22" fill="#f1ebe8"/><rect x="461" y="362.21" width="32.93" height="32.93" fill="#f0eae7"/><path d="M 461 395.14 A 32.93 32.93 0 0 0 493.93 362.21 L 461 362.21" fill="#e3d8d1"/><rect x="493.93" y="362.21" width="32.93" height="32.93" fill="#fbf9f8"/><path d="M 493.93 395.14 A 32.93 32.93 0 0 1  526.86 362.21 L 493.93 395.14 A 32.93 32.93 0 0 0 526.86 362.21" fill="#f9f7f6"/><rect x="526.8571428571429" y="329.28571428571433" width="65.85714285714286" height="65.85714285714286" fill="#ffffff"/><rect x="526.86" y="329.29" width="32.93" height="32.93" fill="#525252"/><path d="M 526.86 329.29 A 32.93 32.93 0 0 0 559.79 362.22 L 559.79 329.29" fill="#7d7d7d"/><rect x="559.79" y="329.29" width="32.93" height="32.93" fill="#faf8f7"/><path d="M 559.79 362.22 A 32.93 32.93 0 0 1  592.7199999999999 329.29 L 592.7199999999999 362.22" fill="#828282"/><rect x="526.86" y="362.21" width="32.93" height="32.93" fill="#767676"/><path d="M 526.86 362.21 A 32.93 32.93 0 0 1  559.79 395.14 L 526.86 362.21 A 32.93 32.93 0 0 0 559.79 395.14" fill="#e8dfd9"/><rect x="559.79" y="362.21" width="32.93" height="32.93" fill="#484848"/><path d="M 559.79 395.14 A 32.93 32.93 0 0 1  592.7199999999999 362.21 L 559.79 395.14 A 32.93 32.93 0 0 0 592.7199999999999 362.21" fill="#4b4b4b"/><rect x="0" y="395.14" width="65.86" height="65.86" fill="#e6e6e6"/><path d="M 0 461 A 65.86 65.86 0 0 1  65.86 395.14 L 0 461 A 65.86 65.86 0 0 0 65.86 395.14" fill="#eae2dd"/><rect x="65.86" y="395.14" width="65.86" height="65.86" fill="#e5dbd5"/><path d="M 65.86 395.14 A 65.86 65.86 0 0 1  131.72 461 L 65.86 395.14 A 65.86 65.86 0 0 0 131.72 461" fill="#a2a2a2"/><rect x="131.71" y="395.14" width="65.86" height="65.86" fill="#e3d9d2"/><path d="M 131.71 461 A 65.86 65.86 0 0 0 197.57 395.14 L 131.71 395.14" fill="#e3d8d2"/><rect x="197.57142857142858" y="395.14285714285717" width="65.85714285714286" height="65.85714285714286" fill="#ffffff"/><rect x="197.57" y="395.14" width="32.93" height="32.93" fill="#5d5d5d"/><path d="M 197.57 395.14 A 32.93 32.93 0 0 1  230.5 428.07 L 197.57 395.14 A 32.93 32.93 0 0 0 230.5 428.07" fill="#9f9f9f"/><rect x="230.5" y="395.14" width="32.93" height="32.93" fill="#616161"/><path d="M 230.5 428.07 A 32.93 32.93 0 0 0 263.43 395.14 L 230.5 395.14" fill="#868686"/><rect x="197.57" y="428.07" width="32.93" height="32.93" fill="#f5f2ef"/><path d="M 197.57 461 A 32.93 32.93 0 0 0 230.5 428.07 L 197.57 428.07" fill="#b3b3b3"/><rect x="230.5" y="428.07" width="32.93" height="32.93" fill="#dfd3cc"/><path d="M 230.5 461 A 32.93 32.93 0 0 1  263.43 428.07 L 263.43 461" fill="#f3efec"/><rect x="263.43" y="395.14" width="65.86" height="65.86" fill="#545454"/><path d="M 263.43 395.14 A 65.86 65.86 0 0 1  329.29 461 L 263.43 395.14 A 65.86 65.86 0 0 0 329.29 461" fill="#7e7e7e"/><rect x="329.29" y="395.14" width="65.86" height="65.86" fill="#e1d5ce"/><path d="M 329.29 461 A 65.86 65.86 0 0 1  395.15000000000003 395.14 L 395.15000000000003 461" fill="#606060"/><rect x="395.14" y="395.14" width="65.86" height="65.86" fill="#cccccc"/><path d="M 395.14 461 A 65.86 65.86 0 0 1  461 395.14 L 395.14 461 A 65.86 65.86 0 0 0 461 395.14" fill="#fefefd"/><rect x="461" y="395.14285714285717" width="65.85714285714286" height="65.85714285714286" fill="#ffffff"/><rect x="461" y="395.14" width="32.93" height="32.93" fill="#737373"/><path d="M 461 428.07 A 32.93 32.93 0 0 1  493.93 395.14 L 461 428.07 A 32.93 32.93 0 0 0 493.93 395.14" fill="#6f6f6f"/><rect x="493.93" y="395.14" width="32.93" height="32.93" fill="#fcfbfa"/><path d="M 493.93 428.07 A 32.93 32.93 0 0 0 526.86 395.14 L 493.93 395.14" fill="#fefefe"/><rect x="461" y="428.07" width="32.93" height="32.93" fill="#969696"/><path d="M 461 461 A 32.93 32.93 0 0 0 493.93 428.07 L 461 428.07" fill="#989898"/><rect x="493.93" y="428.07" width="32.93" height="32.93" fill="#fcfbfa"/><path d="M 493.93 428.07 A 32.93 32.93 0 0 1 526.86 461 L 493.93 461" fill="#7e7e7e"/><rect x="526.8571428571429" y="395.14285714285717" width="65.85714285714286" height="65.85714285714286" fill="#ffffff"/><rect x="526.86" y="395.14" width="32.93" height="32.93" fill="#d0d0d0"/><path d="M 526.86 395.14 A 32.93 32.93 0 0 1 559.79 428.07 L 526.86 428.07" fill="#5f5f5f"/><rect x="559.79" y="395.14" width="32.93" height="32.93" fill="#d8d8d8"/><path d="M 559.79 428.07 A 32.93 32.93 0 0 1  592.7199999999999 395.14 L 559.79 428.07 A 32.93 32.93 0 0 0 592.7199999999999 395.14" fill="#e7ddd8"/><rect x="526.86" y="428.07" width="32.93" height="32.93" fill="#ece5e0"/><path d="M 526.86 428.07 A 32.93 32.93 0 0 1 559.79 461 L 526.86 461" fill="#4a4a4a"/><rect x="559.79" y="428.07" width="32.93" height="32.93" fill="#f0eae6"/><path d="M 559.79 461 A 32.93 32.93 0 0 1  592.7199999999999 428.07 L 592.7199999999999 461" fill="#5c5c5c"/></g></svg>